/* XPM */
static char *_5384367cefb4145d35c2688b4b4cb97oNz6tZWze1PrJbGF[] = {
/* columns rows colors chars-per-pixel */
"16 16 63 1 ",
"  c None",
". c black",
"X c #100E08",
"o c #16120A",
"O c #191408",
"+ c #18140B",
"@ c #1A150A",
"# c #1F1A0D",
"$ c #26200F",
"% c #282210",
"& c #413517",
"* c #44381A",
"= c #715A1F",
"- c #7A6122",
"; c #8A6D25",
": c #907124",
"> c #9A7823",
", c #9C7923",
"< c #93752B",
"1 c #92752D",
"2 c #9C7D30",
"3 c #AC8525",
"4 c #AD892F",
"5 c #AF8B2F",
"6 c #B18922",
"7 c #B08927",
"8 c #B58B24",
"9 c #B78F2A",
"0 c #A18130",
"q c #AB8831",
"w c #AE8B32",
"e c #B08C30",
"r c #B08D33",
"t c #B48F31",
"y c #B79233",
"u c #B89231",
"i c #DAA51F",
"p c #DEA81E",
"a c #DFA81F",
"s c #F5B617",
"d c #FAB915",
"f c #F8B816",
"g c #F3B519",
"h c #F2B61E",
"j c #F5B71C",
"k c #F4B71D",
"l c #F7B81B",
"z c #F6B81D",
"x c #F4B81E",
"c c #F4B81F",
"v c #F8B919",
"b c #C49725",
"n c #DBA622",
"m c #E1AD2B",
"M c #EEB421",
"N c #EDB422",
"B c #EEB523",
"V c #E9B124",
"C c #E9B225",
"Z c #EBB224",
"A c #EBB324",
"S c #E9B226",
"D c #E7B128",
/* pixels */
"       dd       ",
"     dddddd     ",
"   dddddddddd   ",
" ddda8>37,6iddd ",
"ddd-:adddsn9;ddd",
"ddd4O=bkdddVyddd",
"dddj%..&zddwNddd",
"dddd4..OhdDydddd",
"ddddh$.#zdrVdddd",
"dddddw.#zV4ddddd",
"dddddMOOvyVddddd",
"dddddd0Xmydddddd",
" dddddM*2Vddddd ",
"   dddd<1dddd   ",
"     ddMBdd     ",
"       dd       "
};
