/* XPM */
static char *ce55236f8e11434dba1c1e21f59bd0c5ItDm5z0T8PVVdBRV[] = {
/* columns rows colors chars-per-pixel */
"32 32 137 2 ",
"   c None",
".  c black",
"X  c #010101",
"o  c #030202",
"O  c #050503",
"+  c #0A0804",
"@  c #120F08",
"#  c #181409",
"$  c #1F190A",
"%  c #241E0F",
"&  c #272010",
"*  c #2F2610",
"=  c #2E2612",
"-  c #302712",
";  c #302812",
":  c #312913",
">  c #322913",
",  c #342B13",
"<  c #372D14",
"1  c #342C16",
"2  c #3D3010",
"3  c #3C3117",
"4  c #39301B",
"5  c #403311",
"6  c #433512",
"7  c #443612",
"8  c #433614",
"9  c #453714",
"0  c #4A3B14",
"q  c #4B3C15",
"w  c #4E3F16",
"e  c #433719",
"r  c #40351A",
"t  c #463A1A",
"y  c #463A1B",
"u  c #473B1D",
"i  c #473C1E",
"p  c #4D3E18",
"a  c #503F14",
"s  c #4E401D",
"d  c #4D401F",
"f  c #534216",
"g  c #554316",
"h  c #594617",
"j  c #58471D",
"k  c #745A16",
"l  c #735A1A",
"z  c #765C1A",
"x  c #785E1A",
"c  c #795F1E",
"v  c #524420",
"b  c #5F4E23",
"n  c #604E22",
"m  c #614F23",
"M  c #6A5520",
"N  c #6B5723",
"B  c #6D5926",
"V  c #776026",
"C  c #7B6326",
"Z  c #7F6729",
"A  c #80641E",
"S  c #876819",
"D  c #8A6A1A",
"F  c #8C6C19",
"G  c #8D6C1A",
"H  c #92701A",
"J  c #92711B",
"K  c #826825",
"L  c #8D712B",
"P  c #8F742F",
"I  c #9D7B27",
"U  c #947529",
"Y  c #997A2C",
"T  c #B4891A",
"R  c #BD8E1A",
"E  c #BD901C",
"W  c #A78227",
"Q  c #A4812A",
"!  c #AB8628",
"~  c #AE8829",
"^  c #B48C27",
"/  c #BF9325",
"(  c #BD932B",
")  c #B9912E",
"_  c #B8922F",
"`  c #A48433",
"'  c #C69519",
"]  c #C4941D",
"[  c #C5961F",
"{  c #CC9919",
"}  c #D09C1A",
"|  c #D49F1A",
" . c #DEA71D",
".. c #EDB017",
"X. c #EBB01A",
"o. c #ECB01A",
"O. c #EEB21A",
"+. c #EFB21A",
"@. c #ECB21E",
"#. c #EFB41D",
"$. c #F0B316",
"%. c #F0B317",
"&. c #F3B416",
"*. c #F3B417",
"=. c #F7B715",
"-. c #F5B616",
";. c #F8B715",
":. c #F8B815",
">. c #FAB915",
",. c #F8B816",
"<. c #F9B916",
"1. c #F0B41B",
"2. c #F2B51B",
"3. c #F5B618",
"4. c #F7B718",
"5. c #F6B719",
"6. c #F4B61A",
"7. c #F4B71B",
"8. c #F0B51E",
"9. c #F7B819",
"0. c #F8B818",
"q. c #CB9C26",
"w. c #CD9E26",
"e. c #C59929",
"r. c #C2982D",
"t. c #CC9F2E",
"y. c #D9A626",
"u. c #DAA726",
"i. c #DEA820",
"p. c #D4A429",
"a. c #E1AB21",
"s. c #E5AD20",
"d. c #E5AF27",
"f. c #E8AF21",
"g. c #E1AD2A",
"h. c #ECB222",
"j. c #F0B520",
/* pixels */
"                                                                ",
"                            >.>.>.                              ",
"                          >.>.>.>.>.>.                          ",
"                      >.>.>.>.>.>.>.>.>.>.                      ",
"                  >.>.>.>.>.>.>.>.>.>.>.>.>.>.                  ",
"              >.>.>.>.>.>.>.>.>.>.>.>.>.>.>.>.>.>.              ",
"          >.>.>.>.>.>.>.>.>.>.>.>.>.>.>.>.>.>.>.>.>.>.          ",
"      >.>.>.>.>.>.>.;.} F g 5 z c 8 h J | ;.>.>.>.>.>.>.>.      ",
"    >.>.>.>.>.;.{ S a 6 k R $.>.>.$.E x 9 g D } >.>.>.>.>.>.    ",
"  >.>.>.>.>.>.7 w F ' &.>.>.>.>.>.>.>.>.1.] A p 0 >.>.>.>.>.>.  ",
"  >.>.>.>.>.>.4 0 T ..>.>.>.>.>.>.>.>.>.>.>.>.w.r >.>.>.>.>.>.  ",
"  >.>.>.>.>.>.~ X X $ l ] &.>.>.>.>.>.>.>.>.>.M ! >.>.>.>.>.>.  ",
"  >.>.>.>.>.>.1.= X X X X 2 H  .>.>.>.>.>.>.g.r 2.>.>.>.>.>.>.  ",
"  >.>.>.>.>.>.>.Q X X X X X X 3 +.>.>.>.>.>.C I >.>.>.>.>.>.>.  ",
"  >.>.>.>.>.>.>.@.% X X X X X = +.>.>.>.>.a.u j.>.>.>.>.>.>.>.  ",
"  >.>.>.>.>.>.>.>.Y X X X X X : X.>.>.>.>.P U >.>.>.>.>.>.>.>.  ",
"  >.>.>.>.>.>.>.>.s.# X X X X : X.>.>.>.h.u s.>.>.>.>.>.>.>.>.  ",
"  >.>.>.>.>.>.>.>.>.L X X X X : X.>.>.>.` K >.>.>.>.>.>.>.>.>.  ",
"  >.>.>.>.>.>.>.>.>.d.@ X X X : X.>.>.2.u i.>.>.>.>.>.>.>.>.>.  ",
"  >.>.>.>.>.>.>.>.>.>.Z X X X : X.>.>.Q V >.>.>.>.>.>.>.>.>.>.  ",
"  >.>.>.>.>.>.>.>.>.>.y.+ X X : X.>.7.d y.>.>.>.>.>.>.>.>.>.>.  ",
"  >.>.>.>.>.>.>.>.>.>.>.N X X : X.>._ B >.>.>.>.>.>.>.>.>.>.>.  ",
"  >.>.>.>.>.>.>.>.>.>.>.p.O X - +.3.v w.>.>.>.>.>.>.>.>.>.>.>.  ",
"  >.>.>.>.>.>.>.>.>.>.>.;.j X - 3./ n >.>.>.>.>.>.>.>.>.>.>.>.  ",
"    >.>.>.>.>.>.>.>.>.>.>.t.X = #.m e.>.>.>.>.>.>.>.>.>.>.>.    ",
"      >.>.>.>.>.>.>.>.>.>.0.t 1 ( m 0.>.>.>.>.>.>.>.>.>.>.      ",
"          >.>.>.>.>.>.>.>.>.^ & s r.>.>.>.>.>.>.>.>.>.          ",
"              >.>.>.>.>.>.>.3.1 < 3.>.>.>.>.>.>.>.              ",
"                  >.>.>.>.>.>.W _ >.>.>.>.>.>.                  ",
"                      >.>.>.>.>.>.>.>.>.>.                      ",
"                          >.>.>.>.>.>.                          ",
"                              >.>.>.                            "
};
