/* XPM */
static char *_fd6a6f873194e7da98e5709957c2316UkFaSrGVEgTBWHAH[] = {
/* columns rows colors chars-per-pixel */
"64 64 118 2 ",
"   c None",
".  c #000000",
"X  c #080704",
"o  c #0B0A05",
"O  c #0E0C08",
"+  c #110E06",
"@  c #110F09",
"#  c #151209",
"$  c #1A160B",
"%  c #1D180C",
"&  c #241E0E",
"*  c #2A220E",
"=  c #2C2513",
"-  c #312710",
";  c #332A14",
":  c #3B2F11",
">  c #3C3115",
",  c #3B3219",
"<  c #433614",
"1  c #463816",
"2  c #4C3D15",
"3  c #42371A",
"4  c #453819",
"5  c #4B3D19",
"6  c #4E401C",
"7  c #53421A",
"8  c #5A491E",
"9  c #624E1E",
"0  c #66521D",
"q  c #775D1E",
"w  c #7F641F",
"e  c #564823",
"r  c #645224",
"t  c #685525",
"y  c #735D26",
"u  c #766027",
"i  c #7C6326",
"p  c #7D6529",
"a  c #8B6B1D",
"s  c #95731E",
"d  c #99761E",
"f  c #9C781E",
"g  c #846925",
"h  c #846B2B",
"j  c #8A6F2B",
"k  c #8D7026",
"l  c #957421",
"z  c #997722",
"x  c #9E7A22",
"c  c #91752D",
"v  c #9C7C2B",
"b  c #917631",
"n  c #967930",
"m  c #A07F2C",
"M  c #AE851D",
"N  c #B78C1D",
"B  c #A1802B",
"V  c #A9862C",
"C  c #AD892C",
"Z  c #B38A22",
"A  c #B18C2D",
"S  c #B88F29",
"D  c #B7902D",
"F  c #BD942C",
"G  c #A58430",
"H  c #AB8A37",
"J  c #B79234",
"K  c #B99231",
"L  c #C8971A",
"P  c #CE9B1C",
"I  c #D19E1C",
"U  c #D6A21D",
"Y  c #DAA41C",
"T  c #E2AA1C",
"R  c #EAAF19",
"E  c #EDB21D",
"W  c #F6B616",
"Q  c #F8B715",
"!  c #FAB915",
"~  c #F3B61A",
"^  c #F6B81B",
"/  c #F8B918",
"(  c #CB9C25",
")  c #C2972C",
"_  c #C4992C",
"`  c #C99C2A",
"'  c #C29931",
"]  c #C89F35",
"[  c #D5A223",
"{  c #DCA721",
"}  c #DDA926",
"|  c #D1A22D",
" . c #D3A42F",
".. c #DBA828",
"X. c #DBA92B",
"o. c #DEAB2B",
"O. c #D8A82E",
"+. c #DCAB2E",
"@. c #CAA034",
"#. c #D3A530",
"$. c #D5A734",
"%. c #DAAB33",
"&. c #E3AD25",
"*. c #E8AF20",
"=. c #E0AC2A",
"-. c #E6B026",
";. c #E7B126",
":. c #E9B021",
">. c #EBB120",
",. c #EBB221",
"<. c #E9B227",
"1. c #ECB324",
"2. c #EFB523",
"3. c #E6B028",
"4. c #E5B02A",
"5. c #F3B720",
"6. c #F4B822",
"7. c #E3B131",
/* pixels */
"                                                                                                                                ",
"                                                            ! ! ! !                                                             ",
"                                                        ! ! ! ! ! ! ! !                                                         ",
"                                                      ! ! ! ! ! ! ! ! ! ! !                                                     ",
"                                                  ! ! ! ! ! ! ! ! ! ! ! ! ! ! !                                                 ",
"                                              ! ! ! ! ! ! ! ! ! ! ! ! ! ! ! ! ! ! !                                             ",
"                                          ! ! ! ! ! ! ! ! ! ! ! ! ! ! ! ! ! ! ! ! ! ! !                                         ",
"                                      ! ! ! ! ! ! ! ! ! ! ! ! ! ! ! ! ! ! ! ! ! ! ! ! ! ! !                                     ",
"                                  ! ! ! ! ! ! ! ! ! ! ! ! ! ! ! ! ! ! ! ! ! ! ! ! ! ! ! ! ! ! !                                 ",
"                              ! ! ! ! ! ! ! ! ! ! ! ! ! ! ! ! ! ! ! ! ! ! ! ! ! ! ! ! ! ! ! ! ! !                               ",
"                            ! ! ! ! ! ! ! ! ! ! ! ! ! ! ! ! ! ! ! ! ! ! ! ! ! ! ! ! ! ! ! ! ! ! ! ! !                           ",
"                        ! ! ! ! ! ! ! ! ! ! ! ! ! ! ! ! ! ! ! ! ! ! ! ! ! ! ! ! ! ! ! ! ! ! ! ! ! ! ! ! !                       ",
"                    ! ! ! ! ! ! ! ! ! ! ! ! ! ! ! ! ! ! Q I d 1 o 2 f U ! ! ! ! ! ! ! ! ! ! ! ! ! ! ! ! ! ! !                   ",
"                ! ! ! ! ! ! ! ! ! ! ! ! ! ! ! ! ! ! I s < . . . - X . . 2 f Y ! ! ! ! ! ! ! ! ! ! ! ! ! ! ! ! ! !               ",
"            ! ! ! ! ! ! ! ! ! ! ! ! ! ! ! ! Q I a < . . . 2 d U W U l 5 . . . 2 z U ! ! ! ! ! ! ! ! ! ! ! ! ! ! ! ! !           ",
"        ! ! ! ! ! ! ! ! ! ! ! ! ! ! ! W P a > . . . 7 d U ! ! ! ! ! ! ! { s 5 . . . < s I Q ! ! ! ! ! ! ! ! ! ! ! ! ! !         ",
"        ! ! ! ! ! ! ! ! ! ! ! ! Q P a : . . X 7 f U ! ! ! ! ! ! ! ! ! ! ! ! ! U x 5 X . . < l P Q ! ! ! ! ! ! ! ! ! ! ! !       ",
"      ! ! ! ! ! ! ! ! ! ! ! L g > . . o 7 f U ! ! ! ! ! ! ! ! ! ! ! ! ! ! ! ! ! ! / { x 7 X . . 1 a I ! ! ! ! ! ! ! ! ! ! !     ",
"      ! ! ! ! ! ! ! ! ! ! ! y . . 0 M T ! ! ! ! ! ! ! ! ! ! ! ! ! ! ! ! ! ! ! ! ! ! ! ! ! Y x 8 . . i ! ! ! ! ! ! ! ! ! ! !     ",
"      ! ! ! ! ! ! ! ! ! ! ! +.. o q I ! ! ! ! ! ! ! ! ! ! ! ! ! ! ! ! ! ! ! ! ! ! ! ! ! ! ! ! ^ , o Y ! ! ! ! ! ! ! ! ! ! !     ",
"      ! ! ! ! ! ! ! ! ! ! ! ! t . . . < z Y ! ! ! ! ! ! ! ! ! ! ! ! ! ! ! ! ! ! ! ! ! ! ! ! ! ) . u ! ! ! ! ! ! ! ! ! ! ! !     ",
"      ! ! ! ! ! ! ! ! ! ! ! ! ` . . . . . # 0 N ~ ! ! ! ! ! ! ! ! ! ! ! ! ! ! ! ! ! ! ! ! ! W 5 . [ ! ! ! ! ! ! ! ! ! ! ! !     ",
"      ! ! ! ! ! ! ! ! ! ! ! ! W 5 . . . . . . . ; a U ! ! ! ! ! ! ! ! ! ! ! ! ! ! ! ! ! ! ! ` . r ! ! ! ! ! ! ! ! ! ! ! ! !     ",
"      ! ! ! ! ! ! ! ! ! ! ! ! ! F . . . . . . . . . + 7 M E ! ! ! ! ! ! ! ! ! ! ! ! ! ! ! ! e . #.! ! ! ! ! ! ! ! ! ! ! ! !     ",
"      ! ! ! ! ! ! ! ! ! ! ! ! ! ~ , . . . . . . . . . . . * w ( ! ! ! ! ! ! ! ! ! ! ! ! ! 7.. 5 / ! ! ! ! ! ! ! ! ! ! ! ! !     ",
"      ! ! ! ! ! ! ! ! ! ! ! ! ! ! V . . . . . . . . . . . . . . F ! ! ! ! ! ! ! ! ! ! ! ! y . Z ! ! ! ! ! ! ! ! ! ! ! ! ! !     ",
"      ! ! ! ! ! ! ! ! ! ! ! ! ! ! E = . . . . . . . . . . . . . C ! ! ! ! ! ! ! ! ! ! ! &.X > ~ ! ! ! ! ! ! ! ! ! ! ! ! ! !     ",
"      ! ! ! ! ! ! ! ! ! ! ! ! ! ! ! H . . . . . . . . . . . . . A ! ! ! ! ! ! ! ! ! ! Q j . A ! ! ! ! ! ! ! ! ! ! ! ! ! ! !     ",
"      ! ! ! ! ! ! ! ! ! ! ! ! ! ! ! :.$ . . . . . . . . . . . . A ! ! ! ! ! ! ! ! ! ! *.$ = 6.! ! ! ! ! ! ! ! ! ! ! ! ! ! !     ",
"      ! ! ! ! ! ! ! ! ! ! ! ! ! ! ! ! g . . . . . . . . . . . . A ! ! ! ! ! ! ! ! ! ! v . G ! ! ! ! ! ! ! ! ! ! ! ! ! ! ! !     ",
"      ! ! ! ! ! ! ! ! ! ! ! ! ! ! ! ! 3.o . . . . . . . . . . . A ! ! ! ! ! ! ! ! ! 6.& $ R ! ! ! ! ! ! ! ! ! ! ! ! ! ! ! !     ",
"      ! ! ! ! ! ! ! ! ! ! ! ! ! ! ! ! ! p . . . . . . . . . . . A ! ! ! ! ! ! ! ! ! J . c / ! ! ! ! ! ! ! ! ! ! ! ! ! ! ! !     ",
"      ! ! ! ! ! ! ! ! ! ! ! ! ! ! ! ! ! [ X . . . . . . . . . . A ! ! ! ! ! ! ! ! ~ ; @ -.! ! ! ! ! ! ! ! ! ! ! ! ! ! ! ! !     ",
"      ! ! ! ! ! ! ! ! ! ! ! ! ! ! ! ! ! ! t . . . . . . . . . . A ! ! ! ! ! ! ! ! ] . p ! ! ! ! ! ! ! ! ! ! ! ! ! ! ! ! ! !     ",
"      ! ! ! ! ! ! ! ! ! ! ! ! ! ! ! ! ! ! | . . . . . . . . . . A ! ! ! ! ! ! ! / 6 . ..! ! ! ! ! ! ! ! ! ! ! ! ! ! ! ! ! !     ",
"      ! ! ! ! ! ! ! ! ! ! ! ! ! ! ! ! ! ! ^ e . . . . . . . . . A ! ! ! ! ! ! !  .. r ! ! ! ! ! ! ! ! ! ! ! ! ! ! ! ! ! ! !     ",
"      ! ! ! ! ! ! ! ! ! ! ! ! ! ! ! ! ! ! ! @.. . . . . . . . . A ! ! ! ! ! ! ! 8 . ( ! ! ! ! ! ! ! ! ! ! ! ! ! ! ! ! ! ! !     ",
"      ! ! ! ! ! ! ! ! ! ! ! ! ! ! ! ! ! ! ! ^ , . . . . . . . . A ! ! ! ! ! ! +.. e / ! ! ! ! ! ! ! ! ! ! ! ! ! ! ! ! ! ! !     ",
"      ! ! ! ! ! ! ! ! ! ! ! ! ! ! ! ! ! ! ! ! A . . . . . . . . A ! ! ! ! ! ! 0 . F ! ! ! ! ! ! ! ! ! ! ! ! ! ! ! ! ! ! ! !     ",
"      ! ! ! ! ! ! ! ! ! ! ! ! ! ! ! ! ! ! ! ! ~ = . . . . . . . A ! ! ! ! ! =.X > ^ ! ! ! ! ! ! ! ! ! ! ! ! ! ! ! ! ! ! ! !     ",
"      ! ! ! ! ! ! ! ! ! ! ! ! ! ! ! ! ! ! ! ! ! B . . . . . . . A ! ! ! ! ! b . J ! ! ! ! ! ! ! ! ! ! ! ! ! ! ! ! ! ! ! ! !     ",
"      ! ! ! ! ! ! ! ! ! ! ! ! ! ! ! ! ! ! ! ! ! ,.% . . . . . . A ! ! ! ! 1.+ ; 6.! ! ! ! ! ! ! ! ! ! ! ! ! ! ! ! ! ! ! ! !     ",
"      ! ! ! ! ! ! ! ! ! ! ! ! ! ! ! ! ! ! ! ! ! ! c . . . . . . A ! ! ! ! v . v ! ! ! ! ! ! ! ! ! ! ! ! ! ! ! ! ! ! ! ! ! !     ",
"      ! ! ! ! ! ! ! ! ! ! ! ! ! ! ! ! ! ! ! ! ! ! -.o . . . . . A ! ! ! 2.& $ E ! ! ! ! ! ! ! ! ! ! ! ! ! ! ! ! ! ! ! ! ! !     ",
"      ! ! ! ! ! ! ! ! ! ! ! ! ! ! ! ! ! ! ! ! ! ! ! p . . . . . A ! ! ! V . n ! ! ! ! ! ! ! ! ! ! ! ! ! ! ! ! ! ! ! ! ! ! !     ",
"      ! ! ! ! ! ! ! ! ! ! ! ! ! ! ! ! ! ! ! ! ! ! ! o.o . . . . A ! ! ~ ; o <.! ! ! ! ! ! ! ! ! ! ! ! ! ! ! ! ! ! ! ! ! ! !     ",
"      ! ! ! ! ! ! ! ! ! ! ! ! ! ! ! ! ! ! ! ! ! ! ! ! 9 . . . . A ! ! S . i ! ! ! ! ! ! ! ! ! ! ! ! ! ! ! ! ! ! ! ! ! ! ! !     ",
"        ! ! ! ! ! ! ! ! ! ! ! ! ! ! ! ! ! ! ! ! ! ! ! %.. . . . A ! W 3 X =.! ! ! ! ! ! ! ! ! ! ! ! ! ! ! ! ! ! ! ! ! ! !       ",
"          ! ! ! ! ! ! ! ! ! ! ! ! ! ! ! ! ! ! ! ! ! ! / 6 . . . A ! $.. t ! ! ! ! ! ! ! ! ! ! ! ! ! ! ! ! ! ! ! ! ! ! !         ",
"            ! ! ! ! ! ! ! ! ! ! ! ! ! ! ! ! ! ! ! ! ! ! ) . . . A / r . +.! ! ! ! ! ! ! ! ! ! ! ! ! ! ! ! ! ! ! ! ! !           ",
"                ! ! ! ! ! ! ! ! ! ! ! ! ! ! ! ! ! ! ! ! ^ 1 . . F } . 5 ! ! ! ! ! ! ! ! ! ! ! ! ! ! ! ! ! ! ! ! !               ",
"                    ! ! ! ! ! ! ! ! ! ! ! ! ! ! ! ! ! ! ! J . . ' h . _ ! ! ! ! ! ! ! ! ! ! ! ! ! ! ! ! ! ! !                   ",
"                        ! ! ! ! ! ! ! ! ! ! ! ! ! ! ! ! ! ~ * . u @ 3 ^ ! ! ! ! ! ! ! ! ! ! ! ! ! ! ! ! !                       ",
"                            ! ! ! ! ! ! ! ! ! ! ! ! ! ! ! ! B . . . D ! ! ! ! ! ! ! ! ! ! ! ! ! ! ! !                           ",
"                                ! ! ! ! ! ! ! ! ! ! ! ! ! ! 1.% . ; ~ ! ! ! ! ! ! ! ! ! ! ! ! ! !                               ",
"                                    ! ! ! ! ! ! ! ! ! ! ! ! ! k . V ! ! ! ! ! ! ! ! ! ! ! ! ! !                                 ",
"                                      ! ! ! ! ! ! ! ! ! ! ! ! { , 1.! ! ! ! ! ! ! ! ! ! ! !                                     ",
"                                          ! ! ! ! ! ! ! ! ! ! ! ! ! ! ! ! ! ! ! ! ! ! !                                         ",
"                                              ! ! ! ! ! ! ! ! ! ! ! ! ! ! ! ! ! ! !                                             ",
"                                                  ! ! ! ! ! ! ! ! ! ! ! ! ! ! !                                                 ",
"                                                      ! ! ! ! ! ! ! ! ! ! !                                                     ",
"                                                          ! ! ! ! ! ! !                                                         ",
"                                                              ! ! ! !                                                           ",
"                                                                                                                                "
};
