<?xml version="1.0" standalone="no"?>
<!DOCTYPE svg PUBLIC "-//W3C//DTD SVG 20010904//EN"
 "http://www.w3.org/TR/2001/REC-SVG-20010904/DTD/svg10.dtd">
<svg version="1.0" xmlns="http://www.w3.org/2000/svg"
 width="512.000000pt" height="512.000000pt" viewBox="0 0 512.000000 512.000000"
 preserveAspectRatio="xMidYMid meet">
<metadata>
Created by potrace 1.16, written by Peter Selinger 2001-2019
</metadata>
<g transform="translate(0.000000,512.000000) scale(0.100000,-0.100000)"
fill="#000000" stroke="none">
<path d="M1880 4081 c-371 -124 -681 -229 -688 -231 -13 -5 12 -67 113 -285
20 -44 56 -123 80 -175 24 -52 57 -126 75 -165 18 -38 91 -198 162 -355 72
-157 168 -366 213 -465 46 -99 155 -337 243 -530 88 -192 221 -485 297 -650
76 -165 149 -325 162 -355 l25 -55 13 30 c7 17 52 116 100 220 106 232 194
423 405 885 90 195 201 438 247 540 47 102 104 228 128 280 24 52 62 136 85
185 23 50 68 149 100 220 32 72 115 252 183 400 68 149 124 271 123 271 -1 2
-1368 456 -1381 459 -5 2 -314 -99 -685 -224z m1278 -116 c321 -107 588 -197
592 -200 7 -4 -48 -134 -143 -335 -14 -30 -61 -134 -105 -230 -44 -96 -153
-335 -242 -530 -162 -352 -221 -484 -317 -695 -28 -60 -63 -137 -78 -170 -16
-33 -86 -186 -156 -340 -70 -154 -133 -281 -139 -283 -7 -3 -10 323 -10 1056
l0 1061 -22 7 c-31 9 -507 195 -1005 393 -79 31 -143 61 -143 66 1 9 1138 393
1170 394 8 1 278 -87 598 -194z"/>
</g>
</svg>
